<svg xmlns="http://www.w3.org/2000/svg" version="1.1" xmlns:xlink="http://www.w3.org/1999/xlink" xmlns:svgjs="http://svgjs.dev/svgjs" width="100%" height="100%" viewBox="0 0 1000 600"><rect width="1000" height="600" x="0" y="0" fill="#4B"/><g><circle r="166.66666666666666" cx="324.97878519694007" cy="347.2010286824281" fill="#00ff00" transform="matrix(0.7895794024641971,0,0,0.7895794024641971,0,25.85721652538021)"/><path d="M299.08502652438256 422.20105249342714L299.08502652438256 422.20105249342714Q289.50892842782497 422.20105249342714 283.4951388231868 421.58818221524746Q277.5196536109348 421.01361632945395 273.68921437231177 420.20922408934314Q269.8587751336887 419.36652745684603 267.40729402096997 418.7919615710525Q264.9941173006374 418.17909129287284 262.42772301076 418.17909129287284L262.42772301076 418.17909129287284Q263.50024599757444 413.58256420652526 263.921594313823 409.8287337526747Q264.34294263007155 406.0365989064378 264.34294263007155 402.9722475155394L264.34294263007155 402.9722475155394Q264.34294263007155 398.3757204291918 263.50024599757444 394.3920636210238Q262.6958537574636 390.44671120524197 261.62333077064915 386.118314865598L261.62333077064915 386.118314865598L266.2198578569968 385.8501841188944Q269.16929607073655 392.3236264321673 274.8766505362849 397.2265886576048Q280.6223093942195 402.12955088304227 287.67031759328586 405.5003374130306Q294.7566301847385 408.8711239430189 302.41750866198464 410.6331259927855Q310.116691531617 412.3951280425521 316.97317776875224 412.3951280425521L316.97317776875224 412.3951280425521Q325.4767528784954 412.3951280425521 332.06510836892704 410.17347328415076Q338.6534638593587 407.95181852574933 343.2499909457064 404.0447705023538Q347.80821363966777 400.1377224789584 350.18308596761403 394.7368031524999Q352.5196539031741 389.33588382604137 352.5196539031741 382.9007459051546L352.5196539031741 382.9007459051546Q352.5196539031741 376.00595527563314 349.76173765136554 371.6392545436029Q347.00382139955695 367.2725538115726 342.1774679588919 364.59124634453644Q337.3128101258406 361.8716344851141 330.8393678125677 360.60758953636844Q324.3659254992947 359.3435445876229 316.97317776875224 358.5008479551258L316.97317776875224 358.5008479551258Q311.3041276955901 357.96458646171857 304.8689897747034 357.16019422160775Q298.3955474614304 356.3558019814968 291.92210514815747 354.7470175012752Q285.44866283488454 353.13823302105357 279.47317762263253 350.4186211616311Q273.49769241038064 347.73731369459506 268.90116532403295 343.5621349244959Q264.34294263007155 339.3869561543968 261.5467219858767 333.4114709421448Q258.7888057340681 327.3976813375066 258.7888057340681 319.20054136685326L258.7888057340681 319.20054136685326Q258.7888057340681 309.50953009313696 262.6958537574636 302.23169553975316Q266.6029017808591 294.95386098636936 272.9997353093596 289.7061592294558Q279.3965688378601 284.45845747254225 287.74692637805833 281.0876709425539Q296.0972839182566 277.7168844125656 304.9072941670896 275.7633604008679Q313.75560880830886 273.8098363891702 322.45070587998316 273.00544414905926Q331.1074985592713 272.20105190894844 338.2704199354964 272.20105190894844L338.2704199354964 272.20105190894844Q350.91086942295243 272.20105190894844 360.4103587347376 273.46509685769405Q369.90984804652277 274.76744619882595 376.38329035979575 274.76744619882595L376.38329035979575 274.76744619882595Q375.00433223389143 279.47888646233224 374.5446795252567 283.84558719436257Q374.0850268166219 288.21228792639283 374.0850268166219 291.5830744563811L374.0850268166219 291.5830744563811Q374.0850268166219 295.9114707960251 374.8128102719603 299.8568232118069Q375.54059372729864 303.84048001997485 376.91955185320296 308.16887635961893L376.91955185320296 308.16887635961893L372.2081115896966 308.43700710632254Q369.7566304769779 302.7679570331604 367.5349757185765 297.9799079848816Q365.31332096017513 293.1918589366028 360.7934026585999 289.7827680142283Q356.31178874941094 286.3353726994675 348.2295619559163 284.3818486877698Q340.14733516242165 282.428324676072 325.8597968023577 282.428324676072L325.8597968023577 282.428324676072Q321.30157410839627 282.428324676072 316.3220030981863 283.9988047639074Q311.3041276955901 285.53098045935667 307.20555771026346 288.7102450274138Q303.1069877249368 291.8512052030847 300.42568025790064 296.56264546659105Q297.7060683984783 301.2740857300974 297.7060683984783 307.6326148662116L297.7060683984783 307.6326148662116Q297.7060683984783 315.9446680140237 301.42159445994264 320.809325847075Q305.137120521407 325.6739836801262 310.3848222783206 328.2786823623899Q315.63252403523416 330.92168543703986 321.30157410839627 331.80268646192314Q326.93231978917214 332.64538309442014 330.8393678125677 332.91351384112374L330.8393678125677 332.91351384112374Q335.7040256456189 333.3348621573723 342.1008591741194 334.1392543974832Q348.49769270261993 334.94364663759404 355.16265697782404 336.62903990258815Q361.82762125302816 338.31443316758225 368.3010635663011 340.9957406346184Q374.7362014871878 343.71535249404076 379.86899006694273 348.00544444129855Q385.0017786466976 352.33384078094264 388.06613003759605 358.4625435627396Q391.1687858208807 364.59124634453644 391.1687858208807 372.9416038847347L391.1687858208807 372.9416038847347Q391.1687858208807 383.97326889196904 387.14682462032647 391.90227811591876Q383.0865590273861 399.86959173225466 376.1534640054783 405.30881545109946Q369.2203689835706 410.74803916994415 359.9890104184891 414.1188256999325Q350.7959562457937 417.4896122299207 340.530379086284 419.2516142796874Q330.30310631916046 421.01361632945395 319.65448523578834 421.58818221524746Q309.0441685448025 422.20105249342714 299.08502652438256 422.20105249342714Z " fill="#4b0082" transform="matrix(0.7895794024641971,0,0,0.7895794024641971,0,25.85721652538021)"/><path d="M606.521605907482 391.71120182382265L606.521605907482 391.71120182382265Q599.036484449568 391.71120182382265 594.3668673932546 391.3907379081933Q589.6972503369411 391.0702739925639 586.6299528587745 390.61246839880766Q583.5855456602957 390.1775530847393 581.616981607144 389.85708916910994Q579.6484175539922 389.53662525348057 577.6340729414649 389.53662525348057L577.6340729414649 389.53662525348057Q578.5039035696018 385.91996106280646 578.9159286039824 382.89844414401546Q579.3050633586752 379.87692722522445 579.3050633586752 377.3132159001897L579.3050633586752 377.3132159001897Q579.3050633586752 373.6736614298278 578.6641355274164 370.58347367197337Q578.0232076961577 367.4932859141188 577.1533770680209 364.03685368125946L577.1533770680209 364.03685368125946L580.770041258695 363.8766217234448Q583.0132886681004 368.93537353445095 587.5226737665992 373.1700752766959Q592.0320588650978 377.3818867392531 597.5943968292358 380.47207449710754Q603.133844513686 383.58515253464975 609.176878351268 385.3019235112356Q615.1970219091622 387.0415847675092 620.6906890342368 387.0415847675092L620.6906890342368 387.0415847675092Q627.1915284655751 387.0415847675092 632.6623053109619 384.7983373581037Q638.1330821563486 382.53219966901054 642.0931005423399 378.80108407989735Q646.0302286486433 375.0470782110964 648.2505857783609 370.263009756344Q650.4480526283908 365.4789413015915 650.4480526283908 360.3972992108976L650.4480526283908 360.3972992108976Q650.4480526283908 354.85785152644735 647.9301218627315 351.35563873421233Q645.3893008173847 347.8534259419773 641.1545990751397 345.74752021069867Q636.9427876125825 343.6645047591079 631.4949010468836 342.6115518934686Q626.0699047608723 341.58148930751713 620.3473348389197 340.9405614762585L620.3473348389197 340.9405614762585Q616.0897428169869 340.4369753231266 611.0538812856685 339.79604749186785Q606.040910034038 339.1551196606092 600.959267943344 337.87326399809183Q595.9005161323378 336.59140833557444 591.2308990760245 334.462612324608Q586.5612820197111 332.3109260339538 582.944617829037 329.0147257589091Q579.3050633586752 325.71852548386437 577.1533770680209 320.9802375884875Q574.9788004976789 316.2190594134229 574.9788004976789 309.62665886333343L574.9788004976789 309.62665886333343Q574.9788004976789 301.8210734897899 578.0232076961577 296.02983272877384Q581.0905051743243 290.2385919677577 586.1263667056427 286.095451344264Q591.1393379572733 281.95231072077024 597.6630676682993 279.2512577176086Q604.1867973793253 276.5502047144469 611.0538812856685 274.99366569567576Q617.9438554716996 273.4142363972169 624.7422685389794 272.8190891253338Q631.5406816062591 272.2010515737629 637.1716904094606 272.2010515737629L637.1716904094606 272.2010515737629Q642.0931005423399 272.2010515737629 646.3964731236483 272.52151548939224Q650.6998457049567 272.84197940502156 654.3622904550064 273.2082238800266Q658.0247352050561 273.5744683550315 661.1149229629106 273.84915171128523Q664.205110720765 274.14672534722683 666.7917123254877 274.14672534722683L666.7917123254877 274.14672534722683Q665.898991417663 277.92362149571557 665.532746942658 280.8535772957554Q665.1893927473409 283.78353309579506 665.1893927473409 286.53036665833235L665.1893927473409 286.53036665833235Q665.1893927473409 289.9867988911918 665.7387594598483 293.09987692873403Q666.3110164520435 296.19006468658847 667.2724081989317 299.73805803819914L667.2724081989317 299.73805803819914L663.6557440082576 299.8982899960139Q662.3738883457402 296.9225536365984 661.2293743613496 294.0154881162465Q660.1077506566469 291.1084225958945 658.5512116378758 288.59049183023535Q656.9717823394168 286.04967078488835 654.6827543706357 283.9208747739219Q652.3937264018547 281.7920787629556 648.7999524908685 280.2126494644966Q645.2290688595699 278.6332201660377 640.0329753704369 277.8091700972765Q634.8368818813038 276.9622297488275 627.443321542141 276.9622297488275L627.443321542141 276.9622297488275Q622.4532405701982 276.9622297488275 617.7378429545092 278.72478128478895Q613.045335618508 280.48733282075034 609.3828908684584 283.6004108582926Q605.7204461184086 286.6905986161471 603.4543084293155 290.9939711974555Q601.21106101991 295.2973437787639 601.21106101991 300.3789858694579L601.21106101991 300.3789858694579Q601.21106101991 304.7968098492054 602.8591611574323 307.93277816643536Q604.5072612949547 311.06874648366545 607.1625337387406 313.24332305400753Q609.8178061825267 315.4178996243495 613.1597870169471 316.7913164056181Q616.5017678513675 318.1647331868868 619.8437486857879 318.9201124165845Q623.1628392405204 319.67549164628224 626.1843561593114 319.9959555619116Q629.2058730781025 320.33930975722876 631.2202176906299 320.4995417150435L631.2202176906299 320.4995417150435Q634.9971138391186 320.8200056306729 639.8269628532466 321.4609334619315Q644.6568118673747 322.10186129319027 649.6468928393174 323.4294975150832Q654.6369738112601 324.75713373697624 659.4210422660126 326.9317103073183Q664.205110720765 329.1062868776603 667.959116589566 332.56271911051977Q671.6902321786791 336.0191513433791 673.9563698677724 340.89478091688284Q676.1996172771778 345.74752021069867 676.1996172771778 352.43148187953943L676.1996172771778 352.43148187953943Q676.1996172771778 361.19845899997097 673.1781003583868 367.5161761938067Q670.1794737192836 373.83389338764243 665.0291607895263 378.22882708770214Q659.8788478597687 382.62376078776174 652.9888736737378 385.23325267217217Q646.0988994877067 387.8427445565826 638.339094673539 389.2848321769146Q630.5792898593711 390.7498100769345 622.4074600108227 391.23050595037853Q614.2356301622742 391.71120182382265 606.521605907482 391.71120182382265ZM686.4315722976293 305.2775057226494L686.4315722976293 303.03425831324387L725.6884019622246 303.03425831324387Q732.3723636310654 303.03425831324387 739.422569774911 303.94986950075634Q746.4498856390688 304.8883709679566 753.1796278672853 306.97138641954734Q759.9093700955016 309.0544018711381 765.8608428143324 312.44216326493415Q771.8123155331632 315.8299246587301 776.2759200722862 320.72844451192157Q780.7395246114094 325.64985464480094 783.3490164958198 332.19647463551473Q785.981398659918 338.7659849059164 785.981398659918 347.21249811071857L785.981398659918 347.21249811071857Q785.981398659918 356.8721961389747 782.5020761473708 365.0669162672109Q779.0456439145114 373.284526675135 772.7737072800512 379.28177995334136Q766.5017706455911 385.2790332315478 757.803464364223 388.643904345656Q749.1051580828549 392.0316657394519 738.6443002655254 392.0316657394519L738.6443002655254 392.0316657394519Q733.1048525810752 392.0316657394519 729.3966272716499 390.9787128738127Q725.6884019622246 389.94865028786114 722.7126656028092 388.2547695909632L722.7126656028092 388.2547695909632L729.9688842638452 382.78399274557637Q731.9832288763726 385.0272401549819 734.3180374045292 386.03441246124555Q736.652845932686 387.0415847675092 740.0177170467941 387.0415847675092L740.0177170467941 387.0415847675092Q744.6873341031074 387.0415847675092 748.6702427687866 384.4320928830988Q752.6531514344656 381.7997107190006 755.5602169548176 376.74095890799435Q758.4443921954817 371.68220709698824 760.0924923330041 364.2657564781375Q761.7405924705265 356.8721961389747 761.7405924705265 347.3727300685332L761.7405924705265 347.3727300685332Q761.7405924705265 339.0864488215458 759.8178089767504 332.97474414490034Q757.8950254829742 326.840149188567 754.781947445432 322.4681057681952Q751.6917596875776 318.0731720681356 747.7546315812741 315.3034482259104Q743.7946131952829 312.53372438368535 739.8117045296038 310.9085145258508Q735.8287958639247 309.30619494770406 732.166351113875 308.71104767582096Q728.5039063638253 308.0930101242501 725.8486339200392 308.0930101242501L725.8486339200392 308.0930101242501L720.8585529480965 308.0930101242501L720.8585529480965 410.77880480376894Q720.8585529480965 411.9919896272229 721.2247974231016 413.4340772475549Q721.5910418981065 414.87616486788704 722.7126656028092 416.1809108100922Q723.8571795871998 417.4627664726096 725.9401950387905 418.3554873804343Q728.0232104903813 419.2253180085711 731.571203841992 419.2253180085711L731.571203841992 419.2253180085711L731.571203841992 422.20105436798644L686.4315722976293 422.20105436798644L686.4315722976293 419.2253180085711Q689.7964434117374 419.2253180085711 691.9481297023916 418.5386096179368Q694.076925713358 417.8747915069903 695.2672202571241 416.70738724291186Q696.4804050805782 415.53998297883356 696.9611009540222 414.00633423975023Q697.4417968274662 412.4726855006669 697.4417968274662 410.77880480376894L697.4417968274662 410.77880480376894L697.4417968274662 313.72401892745154Q697.4417968274662 312.53372438368535 697.0526620727734 311.0458562039777Q696.6406370383928 309.5350977445821 695.4732327743144 308.25324208206473Q694.3058285102361 306.97138641954734 692.1312519398941 306.1244460710983Q689.956675369552 305.2775057226494 686.4315722976293 305.2775057226494L686.4315722976293 305.2775057226494ZM848.746545563895 299.5778260803845L848.746545563895 299.5778260803845Q854.7666891217891 299.5778260803845 859.8025506531076 300.8596817429019Q864.8384121844259 302.1415374054193 868.7297597313539 303.995650060132Q872.6439975579693 305.8497627148446 875.5052825189457 307.93277816643536Q878.366567479922 310.038683897714 880.0375578971323 311.7096743149242L880.0375578971323 311.7096743149242Q882.5325983831035 309.78689082114806 885.4396639034555 308.2074615226891Q888.3238391441197 306.65092250391797 891.3224657832229 305.5292987992152Q894.2982021426383 304.3847848148247 897.2281579426781 303.7896375429417Q900.1581137427179 303.1944902710586 902.8133861865039 303.03425831324387L902.8133861865039 303.03425831324387L903.774777933392 305.68953075702996Q900.5701387770985 306.97138641954734 897.9835371723759 309.87845193989926L897.9835371723759 309.87845193989926Q895.8089606020337 312.3734924258707 893.977738227009 316.6997552868669Q892.1236255722963 321.04890842755094 891.9633936144816 328.05333401202097L891.9633936144816 328.05333401202097Q891.8718324957304 332.1506940761391 891.8718324957304 336.59140833557444Q891.8718324957304 341.0092323153219 891.8260519363548 345.3126048966303Q891.8031616566668 349.6159774779387 891.7573810972913 353.5302153045543Q891.7116005379157 357.4215628514821 891.6658199785401 360.4888603296488Q891.6429296988522 363.53326752812757 891.6429296988522 365.43316074221593Q891.6429296988522 367.3330539563042 891.6429296988522 367.65351787193356L891.6429296988522 367.65351787193356Q891.6429296988522 374.6579434564036 893.4512617941893 378.98420631739987Q895.2595938895264 383.3333594580839 897.5028412989318 385.82839994405526L897.5028412989318 385.82839994405526Q900.1581137427179 388.7354654644072 903.4543140177626 390.01732112692457L903.4543140177626 390.01732112692457L902.4929222708745 392.67259357071066Q898.5557941645711 392.5123616128959 894.0464090660723 391.2991767894421Q889.5370239675738 390.1088822456759 885.2794319456409 387.9343056753338Q881.0218399237081 385.75972910499183 877.3822854533462 382.7382121862008Q873.7656212626721 379.7166952674098 871.5223738532666 375.8482380001698L871.5223738532666 375.8482380001698Q869.897163995432 378.91553547833644 867.4021235094607 381.7997107190006Q864.9070830234893 384.7067762393525 861.2904188328152 386.950023648758Q857.6737546421411 389.2161613378512 852.7752347889497 390.61246839880766Q847.8538246560704 392.0316657394519 841.490326902859 392.0316657394519L841.490326902859 392.0316657394519Q831.0294690855294 392.0316657394519 823.1094323135469 388.30055015033884Q815.1893955415644 384.5465442815379 809.8788506539925 378.480620164268Q804.5683057664203 372.3918057673103 801.8672527632586 364.7464523515815Q799.166199760097 357.10109893585275 799.166199760097 349.29551356230934L799.166199760097 349.29551356230934Q799.166199760097 343.43560196222984 800.5853971007413 337.46123896371125Q801.9817041616977 331.50976624488044 804.7514280039228 325.9932088401181Q807.5440421258356 320.4995417150435 811.6871827493294 315.66969270091545Q815.8303233728232 310.8398436867874 821.3468807775855 307.24606977580106Q826.863438182348 303.6751861445026 833.6847415293155 301.6150609725996Q840.5289351559709 299.5778260803845 848.746545563895 299.5778260803845ZM849.0670094795244 383.58515253464975L849.0670094795244 383.58515253464975Q854.6980182827258 383.58515253464975 858.4062435921511 380.9985509299272Q862.0915786218886 378.43483960489243 864.3119357516063 374.726614295467Q866.5322928813239 371.0183889860417 867.5623554672754 366.9210289219236Q868.6153083329147 362.8236688578055 869.0273333672953 359.6877005405754L869.0273333672953 359.6877005405754L869.668261198554 329.1749577167237Q869.5080292407392 327.48107701982576 869.0502236469831 325.0775976526056Q868.6153083329147 322.6741182853855 867.7225874250901 320.08751668066293Q866.8527567969533 317.52380535562804 865.433559456309 314.89142319152984Q864.0372523953525 312.2819313071194 861.8626758250106 310.26758669459207Q859.6880992546685 308.25324208206473 856.6665823358775 306.97138641954734Q853.6450654170865 305.68953075702996 849.6163761920318 305.68953075702996L849.6163761920318 305.68953075702996Q843.5962326341376 305.68953075702996 838.6748225012582 308.73393795550874Q833.7763026480668 311.8012354336754 830.3198704152073 317.0659997618719Q826.863438182348 322.3307640900683 824.9635449682596 329.33518967453836Q823.0636517541714 336.3396152590085 823.0636517541714 344.2367617513032L823.0636517541714 344.2367617513032Q823.0636517541714 354.537387610818 825.284008883889 361.9309479499808Q827.5043660136066 369.3473985688315 831.1668107636563 374.1772475829596Q834.8292555137061 378.98420631739987 839.4759822903316 381.2961245658687Q844.145599346645 383.58515253464975 849.0670094795244 383.58515253464975ZM999.7079401050066 324.5969017791616L999.7079401050066 324.5969017791616L997.0526676612205 324.75713373697624Q995.198555006508 320.9802375884875 992.3143797658438 318.00450122907216Q989.4073142454918 315.0287648696567 985.9051014532567 312.9686396977537Q982.4028886610217 310.9085145258508 978.5802119531573 309.8326713805237Q974.757535245293 308.73393795550874 971.1408710546189 308.73393795550874L971.1408710546189 308.73393795550874Q963.9762135123341 308.73393795550874 958.184972751318 312.3734924258707Q952.3937319903018 315.9901566165447 948.2963719261837 321.73561681818524Q944.1761215823778 327.48107701982576 941.9328741729723 334.64573456211053Q939.666736483879 341.8103921043952 939.666736483879 348.81481768886533L939.666736483879 348.81481768886533Q939.666736483879 356.23126830771605 942.1617769698505 363.0296813749958Q944.6568174558219 369.8280944422755 949.2577636730718 375.00129765172073Q953.835819610634 380.1973911408538 960.4282201607234 383.31046917839603Q967.0435109905006 386.40065693625047 975.238231118737 386.40065693625047L975.238231118737 386.40065693625047Q982.0137539063289 386.40065693625047 986.4773584454521 384.5007637221622Q990.9409629845751 382.62376078776174 993.6420159877368 380.2431717002295Q996.3201787112106 377.8625826126971 997.5791440940402 375.77956716110634Q998.8152191971819 373.6736614298278 999.1356831128114 373.1929655563837L999.1356831128114 373.1929655563837L998.0140594081086 382.62376078776174Q996.5719717877766 384.7067762393525 993.8022479455515 386.5608888940652Q991.0096338236385 388.4150015487778 987.2785182345254 389.7884183300465Q983.5245123657244 391.1389448316273 978.9006758687867 391.91721434101294Q974.276839371849 392.67259357071066 969.057855603028 392.67259357071066L969.057855603028 392.67259357071066Q957.0633490466153 392.67259357071066 947.1976385011689 390.13177252536366Q937.3319279557224 387.6138417597044 930.2130509728133 382.41774827057145Q923.0941739899042 377.22165478143836 919.2028264429763 369.3702888485193Q915.2885886163608 361.5418131952881 915.2885886163608 350.9893942592073L915.2885886163608 350.9893942592073Q915.5403816929265 341.48992818876593 917.9438610601467 334.25659980741773Q920.3702307070547 327.00038114638176 924.6278227289874 321.62116541974615Q928.8854147509203 316.2190594134229 934.8139971900632 312.6023952227488Q940.7196893495184 308.9857310320747 947.8843468918031 306.76537390235706Q955.0490044340879 304.5450167726394 963.381066240451 303.62940558512696Q971.7131280468141 302.71379439761455 980.7090079641237 302.71379439761455L980.7090079641237 302.71379439761455Q986.6833709626424 302.71379439761455 991.1469755017654 302.87402635542924Q995.6105800408884 303.03425831324387 999.3188053503138 303.03425831324387L999.3188053503138 303.03425831324387Q998.5863164003039 305.8497627148446 998.3116330440502 308.9857310320747Q998.0140594081086 312.1216993493048 998.0140594081086 314.20471480089554L998.0140594081086 314.20471480089554Q998.0140594081086 317.02021920249626 998.4718650018649 319.5152596884676Q998.9067803159332 322.01030017443895 999.7079401050066 324.5969017791616ZM1108.1849755455414 339.2466807793604L1037.2937793523918 339.2466807793604Q1037.1335473945771 341.0092323153219 1037.1335473945771 342.65733245284423Q1037.1335473945771 344.30543259036665 1037.1335473945771 345.9993132872646L1037.1335473945771 345.9993132872646Q1037.1335473945771 353.6446667029934 1038.0949391414651 360.8779950843416Q1039.0563308883532 368.13421374537756 1041.6658227727637 373.765222548579Q1044.298204936862 379.39623135178044 1048.9678219931752 382.89844414401546Q1053.6374390494886 386.40065693625047 1061.0309993886515 386.5608888940652L1061.0309993886515 386.5608888940652Q1065.7692872840282 386.5608888940652 1069.5232931528294 385.0272401549819Q1073.2544087419424 383.49359141589855 1076.069913143543 380.8154286924247Q1078.8854175451438 378.11437568926306 1080.8997621576714 374.49771149858896Q1082.9141067701985 370.8581570282271 1084.287523551467 366.60056500629423L1084.287523551467 366.60056500629423L1103.28645569235 373.03273359856905Q1100.3793901719982 377.15298394237504 1096.3507009469436 380.6094161752344Q1092.3449020015764 384.06584840809387 1087.1488085124436 386.60666945344076Q1081.9527150233105 389.1246002191 1075.5663269904112 390.5895781191199Q1069.1570486778244 392.0316657394519 1061.5116952620956 392.0316657394519L1061.5116952620956 392.0316657394519Q1052.9049500994788 392.0316657394519 1045.9005245150086 390.13177252536366Q1038.8960989305388 388.2547695909632 1033.3795415257762 384.95856931591845Q1027.8858744007016 381.63947876118584 1023.8114046162714 377.1758742220628Q1019.7369348318409 372.7122696829397 1017.0587721083671 367.65351787193356Q1014.3577191052054 362.57187578123956 1013.0758634426882 357.10109893585275Q1011.7711175004829 351.63032209046605 1011.7711175004829 346.319777202894L1011.7711175004829 346.319777202894Q1011.7711175004829 341.26102539188776 1012.9385217645612 335.90469994494003Q1014.1059260286395 330.5483744979924 1016.600966514611 325.398061568235Q1019.0960070005823 320.24774863847756 1022.9186837084467 315.6925829806032Q1026.7413604163112 311.16030760241665 1032.097685863259 307.7038753695573Q1037.4540113102064 304.22455285701005 1044.3668757759253 302.23309852417054Q1051.302630521332 300.21875391164315 1059.9093756839488 300.21875391164315L1059.9093756839488 300.21875391164315Q1072.5448100716203 300.21875391164315 1081.4262385904908 303.35472222887324Q1090.3305573890493 306.49069054610334 1096.0760175906898 311.84701599305106Q1101.8214777923301 317.1804511603109 1104.6827627533066 324.27643786353224Q1107.544047714283 331.3495342870657 1108.1849755455414 339.2466807793604L1108.1849755455414 339.2466807793604ZM1060.3900715573927 305.8497627148446L1060.3900715573927 305.8497627148446Q1054.5072696776256 305.8497627148446 1050.455690172883 308.02433928518667Q1046.3812203884527 310.19891585552864 1043.7259479446666 313.9758120040175Q1041.0706755008805 317.7527081525062 1039.6743684399241 322.857240522888Q1038.2551710992798 327.98466317295754 1037.6142432680213 333.84457477303715L1037.6142432680213 333.84457477303715L1083.0056678889498 333.84457477303715Q1082.5249720155057 328.05333401202097 1081.2660066326762 322.99458220101485Q1080.0299315295345 317.91294011032085 1077.4891104841874 314.09026340245646Q1074.9482894388404 310.26758669459207 1070.8051488153467 308.04722956487444Q1066.662008191853 305.8497627148446 1060.3900715573927 305.8497627148446Z " fill="#ffff00" transform="matrix(0.7895794024641971,0,0,0.7895794024641971,0,25.85721652538021)"/></g></svg>